<?xml version="1.0" standalone="no"?>
<!DOCTYPE svg PUBLIC "-//W3C//DTD SVG 20010904//EN"
 "http://www.w3.org/TR/2001/REC-SVG-20010904/DTD/svg10.dtd">
<svg version="1.0" xmlns="http://www.w3.org/2000/svg"
 width="858.000000pt" height="904.000000pt" viewBox="0 0 858.000000 904.000000"
 preserveAspectRatio="xMidYMid meet">

<g transform="translate(0.000000,904.000000) scale(0.100000,-0.100000)"
fill="#000000" stroke="none">
<path d="M8110 8717 c-14 -7 -36 -20 -50 -29 -13 -10 -32 -18 -41 -18 -16 0
-183 -63 -259 -97 -19 -9 -62 -26 -95 -38 -149 -55 -187 -70 -290 -116 -60
-26 -135 -54 -165 -60 -62 -12 -109 -26 -260 -77 -126 -42 -195 -60 -275 -73
-33 -6 -71 -12 -85 -15 -25 -4 -224 -33 -270 -39 -14 -2 -33 -4 -43 -4 -30 -2
-14 -22 27 -36 21 -8 53 -27 70 -43 17 -17 54 -42 83 -56 71 -36 108 -85 108
-147 0 -33 -6 -54 -18 -66 -15 -16 -19 -16 -27 -3 -8 13 -10 13 -10 -2 0 -10
-10 -23 -22 -29 -13 -7 -54 -37 -91 -67 -62 -49 -71 -53 -93 -43 -47 21 -71
13 -114 -37 l-42 -48 -66 63 c-36 35 -72 63 -79 63 -7 0 -36 -16 -64 -37 l-51
-36 -52 25 c-43 21 -53 23 -64 12 -11 -12 -18 -12 -50 1 -20 9 -44 23 -54 32
-17 15 -18 14 -18 -10 0 -14 -5 -38 -10 -52 -8 -20 -7 -26 2 -23 7 3 13 10 13
16 0 7 5 12 10 12 6 0 10 -10 10 -22 0 -12 9 -24 21 -28 34 -13 46 -37 51
-103 6 -74 -9 -97 -49 -76 -48 25 -88 62 -88 81 0 28 -17 13 -41 -35 -27 -52
-36 -58 -74 -52 -27 5 -27 4 8 -11 38 -17 48 -38 22 -48 -24 -9 -86 22 -83 42
4 23 -53 29 -72 8 -7 -9 -22 -16 -34 -17 -11 0 -41 -11 -66 -24 -25 -14 -65
-34 -88 -46 -24 -11 -52 -29 -62 -39 -10 -10 -27 -16 -37 -14 -16 4 -19 -1
-20 -30 -1 -41 -44 -100 -86 -117 -15 -7 -32 -20 -38 -30 -5 -11 -15 -19 -22
-19 -27 0 -98 -47 -110 -72 -7 -16 -20 -28 -31 -28 -12 0 -16 -5 -13 -14 3 -8
1 -17 -6 -20 -9 -3 -8 -8 3 -15 13 -9 13 -11 -2 -11 -10 0 -18 5 -18 10 0 6
-9 10 -19 10 -11 0 -40 11 -65 24 -45 24 -62 21 -31 -4 8 -7 15 -19 15 -26 0
-10 -6 -11 -26 -4 -29 11 -48 5 -37 -13 3 -7 -3 -4 -15 6 -15 14 -22 36 -27
85 -4 37 -8 78 -9 92 -3 26 -33 90 -72 152 l-24 37 34 7 c19 3 48 3 65 -1 23
-5 37 -1 60 16 25 18 33 20 45 9 9 -7 23 -10 31 -6 9 3 15 0 15 -8 0 -8 -7
-17 -16 -20 -9 -4 -14 -9 -12 -12 13 -13 77 27 121 76 52 58 57 70 27 70 -33
0 -23 14 45 64 36 26 65 49 65 50 0 2 -24 54 -54 117 -29 63 -66 146 -82 185
-26 64 -35 75 -98 122 -38 28 -83 54 -100 57 -17 2 -96 14 -175 25 -176 24
-196 20 -336 -63 -119 -71 -133 -83 -195 -164 -42 -55 -51 -77 -75 -175 -15
-62 -34 -125 -41 -140 -8 -15 -14 -39 -14 -53 0 -20 -10 -31 -47 -53 -77 -44
-162 -131 -189 -191 -13 -30 -40 -76 -60 -104 -20 -28 -47 -80 -59 -117 -20
-58 -21 -74 -13 -118 l11 -52 28 21 c16 11 29 17 29 13 0 -3 6 -1 14 5 11 9
20 9 35 2 11 -6 27 -8 35 -5 9 3 41 -2 72 -12 47 -15 63 -16 103 -5 25 6 60
11 76 10 17 0 47 2 68 6 23 5 37 4 37 -3 0 -5 9 -8 20 -5 11 3 20 0 20 -6 0
-6 13 -11 30 -11 32 0 101 -32 121 -56 7 -9 12 -35 10 -60 -2 -41 0 -44 24
-44 30 0 34 -25 6 -40 -14 -7 -22 -7 -27 1 -3 6 -9 7 -13 2 -3 -4 -40 -19 -81
-31 -103 -32 -166 -64 -225 -116 -29 -25 -65 -46 -85 -50 -38 -7 -43 -4 -157
86 -64 50 -163 111 -169 105 -6 -6 7 -37 15 -37 3 0 20 -11 36 -25 l30 -24
-52 6 -52 6 -6 -37 c-4 -20 -5 -42 -2 -49 5 -13 -16 -49 -78 -136 -30 -41 -31
-41 -80 -36 -57 5 -145 21 -178 31 -50 15 -6 -7 68 -34 44 -17 92 -35 107 -41
l27 -10 -49 -73 c-39 -55 -63 -79 -103 -100 l-52 -28 0 -52 c0 -52 -1 -53 -37
-65 -33 -11 -47 -10 -100 7 -35 11 -71 20 -80 20 -25 0 -180 -80 -205 -107
-17 -18 -33 -23 -70 -23 -35 0 -60 -8 -100 -32 -29 -18 -53 -38 -53 -45 0 -7
-8 -13 -17 -13 -15 0 -16 2 -3 10 21 14 11 12 -46 -6 -77 -26 -78 -37 -4 -30
l65 6 -9 -65 -10 -66 -13 45 c-15 51 -40 70 -78 60 -23 -6 -25 -10 -19 -36 4
-19 2 -28 -4 -24 -5 3 -13 22 -16 41 -4 19 -9 35 -12 35 -3 0 -421 -119 -928
-265 -709 -203 -946 -267 -1022 -276 -54 -7 -101 -13 -103 -15 -2 -2 3 -25 10
-53 15 -58 21 -61 129 -61 158 0 338 33 860 160 285 69 316 74 341 56 23 -16
94 -6 201 27 l73 23 0 43 c0 29 5 47 15 52 29 16 155 38 164 29 5 -5 -1 -24
-15 -46 -12 -21 -17 -34 -11 -30 17 10 94 126 85 127 -20 2 36 18 62 18 17 -1
24 -3 16 -6 -22 -9 -121 -111 -121 -125 -1 -19 -30 -51 -65 -72 -17 -10 -41
-35 -53 -56 l-22 -39 82 -3 c66 -2 83 -6 83 -18 0 -8 -9 -16 -20 -18 -40 -8
-38 -21 6 -41 l44 -21 -40 7 c-22 3 -55 13 -74 20 -46 19 -72 11 -152 -50 -72
-55 -77 -67 -57 -124 l13 -34 -82 -81 c-45 -44 -75 -77 -65 -73 9 4 26 9 37
11 15 3 16 3 4 -3 -19 -9 -72 -69 -86 -98 -20 -38 6 -413 31 -453 11 -18 45
-14 77 9 22 15 30 17 33 7 13 -40 15 -38 10 12 -6 65 -16 113 -64 298 -6 25
-4 43 11 75 10 23 19 55 19 70 0 17 9 37 22 48 26 23 134 63 118 44 -15 -19
12 -66 31 -54 8 5 22 9 31 9 37 0 228 139 228 165 0 7 14 15 31 17 38 6 61
-23 57 -74 -2 -32 14 -63 61 -121 14 -16 16 -16 38 4 22 22 23 22 56 4 l33
-17 70 35 71 36 24 -23 24 -24 175 53 c96 30 178 51 182 49 4 -3 8 -11 8 -19
0 -7 17 -27 37 -44 33 -27 38 -29 49 -13 10 14 15 11 40 -31 l29 -47 67 0 c44
0 82 7 112 20 25 10 48 16 50 11 3 -4 1 -48 -4 -97 -14 -126 -11 -140 11 -54
10 41 17 87 14 103 -5 29 3 34 24 15 10 -11 24 -1 72 50 32 34 66 62 75 62 22
0 12 -11 -62 -71 l-65 -54 28 -22 28 -23 -28 0 c-21 0 -30 -7 -38 -27 -5 -16
-18 -46 -28 -68 -10 -22 -21 -48 -25 -58 -3 -10 -10 -15 -16 -12 -6 4 -10 -6
-10 -22 0 -27 0 -27 19 -8 65 67 171 190 171 199 0 6 -7 24 -15 40 -15 27 -14
31 7 53 12 12 27 23 34 23 7 0 54 -48 105 -106 72 -82 106 -112 150 -135 57
-28 58 -29 53 -66 -9 -60 -11 -63 -49 -63 -41 0 -40 6 -16 -123 l18 -98 -24
-87 c-13 -48 -25 -104 -28 -124 -6 -62 -18 -72 -117 -107 -89 -30 -100 -38
-269 -179 -124 -103 -223 -197 -329 -312 -84 -91 -158 -171 -165 -179 -11 -11
-22 -10 -71 9 -75 27 -94 45 -94 85 0 30 -4 34 -70 63 -66 29 -75 31 -155 25
-83 -6 -85 -6 -105 -40 -11 -19 -20 -38 -20 -42 0 -14 204 -98 268 -110 62
-12 152 -45 152 -56 0 -3 -48 -28 -106 -55 -59 -28 -112 -57 -118 -65 -10 -14
-24 -13 -126 11 -117 26 -142 40 -175 98 -11 20 -151 55 -218 56 -50 0 -104
-36 -111 -74 -4 -16 -3 -33 1 -36 18 -16 254 -70 304 -70 32 0 106 -16 184
-38 123 -36 130 -39 133 -65 3 -21 -2 -29 -22 -37 -16 -6 -54 -53 -106 -130
-80 -119 -82 -121 -104 -106 -38 24 -82 10 -169 -53 -57 -42 -58 -52 -15 -181
60 -182 172 -303 308 -334 38 -9 83 -13 102 -10 80 13 80 14 75 40 -6 33 10
40 107 48 78 7 80 8 141 62 34 30 67 54 72 54 6 0 36 -11 67 -25 l56 -25 116
18 115 17 22 40 c35 63 166 169 228 186 46 12 56 20 79 59 20 36 39 51 90 77
56 27 76 32 143 32 l77 1 -16 25 c-20 31 -11 49 18 34 11 -6 39 -12 62 -13 40
-2 42 -4 83 -77 41 -72 116 -283 105 -294 -3 -3 -12 -5 -19 -5 -25 0 -152 -81
-172 -109 -12 -16 -20 -48 -22 -81 l-3 -54 52 -23 c76 -33 214 -44 385 -30
l137 11 0 31 c-1 16 -9 89 -19 160 -10 72 -15 134 -11 138 9 10 89 -120 152
-248 53 -106 92 -241 89 -309 -2 -38 4 -57 25 -89 26 -40 26 -40 10 -96 -9
-31 -25 -162 -37 -291 -23 -250 -35 -302 -98 -414 -19 -34 -36 -90 -51 -169
-28 -145 -24 -251 15 -366 24 -73 28 -78 91 -124 l66 -48 105 7 105 7 93 68
93 69 41 113 42 113 -12 295 -11 294 26 128 c39 193 40 216 17 404 l-22 172
26 62 c14 34 25 63 25 64 0 1 -22 16 -49 33 l-49 30 -8 78 c-12 126 -10 262 4
354 16 100 19 128 61 530 18 168 34 315 36 326 3 12 20 31 37 43 l33 20 90
-88 c50 -48 126 -116 170 -151 44 -35 118 -98 165 -140 47 -42 107 -91 134
-109 34 -24 209 -89 615 -231 l566 -197 180 -7 181 -8 168 46 c93 25 170 47
173 49 2 3 -42 34 -99 70 -101 65 -104 68 -141 142 -20 41 -37 80 -37 86 0 7
31 66 69 133 84 148 167 339 256 591 37 105 82 232 101 283 18 51 30 91 26 88
-4 -2 -158 -124 -342 -270 -362 -287 -406 -315 -830 -526 -208 -104 -228 -110
-383 -110 l-129 0 -39 43 c-30 33 -38 50 -39 81 0 22 -18 95 -41 164 -50 155
-73 327 -89 672 -11 255 -24 360 -43 372 -7 4 -27 8 -44 8 -27 0 -48 -14 -122
-82 -50 -46 -138 -134 -196 -195 -59 -62 -110 -113 -115 -113 -17 0 -62 86
-110 212 -28 73 -76 180 -105 237 -30 57 -52 108 -49 113 4 6 36 7 78 3 44 -4
82 -2 101 4 44 17 122 107 146 171 40 104 45 229 13 290 -27 51 -31 55 -47 42
-22 -19 -71 42 -63 78 4 22 -2 34 -30 61 -43 42 -32 55 36 40 28 -6 58 -11 66
-11 9 0 -13 40 -58 109 -40 60 -76 106 -81 102 -4 -4 -11 -21 -16 -37 -8 -28
-5 -33 60 -89 38 -32 68 -60 66 -62 -7 -6 -146 69 -163 88 -13 15 -15 22 -6
31 9 9 8 16 -4 29 -11 12 -17 56 -24 173 l-9 157 41 76 41 76 79 -6 c69 -6 78
-4 78 11 1 33 29 277 35 298 5 16 13 19 36 16 16 -2 29 -8 29 -12 0 -10 50
-28 75 -27 11 0 35 -3 53 -7 35 -8 46 8 12 19 -19 6 -62 56 -88 103 -12 21
-11 22 24 22 27 0 37 5 41 19 3 11 17 21 34 25 16 3 47 20 69 37 21 17 56 35
77 40 21 4 67 15 103 24 64 17 105 14 165 -11 18 -7 19 -6 5 10 -13 16 -12 20
5 32 10 8 16 14 12 14 -4 0 -3 9 3 21 7 11 13 39 16 61 2 23 6 49 9 59 3 9 1
20 -5 24 -5 3 -10 15 -10 25 0 13 -5 17 -14 14 -18 -7 -49 38 -44 63 6 32 37
27 53 -9 14 -32 16 -32 19 6 1 14 15 23 51 33 28 8 58 22 67 30 9 8 36 25 60
38 47 25 50 34 62 154 4 36 9 68 12 73 3 5 -12 15 -33 24 -91 36 -87 33 -70
52 24 26 33 141 14 167 -14 19 -12 21 31 45 42 23 47 29 50 65 2 22 8 45 13
52 20 23 216 133 240 134 17 1 19 3 7 6 -35 9 -17 23 29 23 54 0 116 -32 149
-77 12 -16 29 -55 39 -88 21 -73 36 -95 46 -68 4 11 -6 64 -24 127 -26 91 -28
109 -16 117 12 8 12 10 -1 19 -8 5 -21 10 -27 10 -29 0 -4 42 28 47 31 5 36
11 13 19 -10 3 -32 12 -49 19 l-30 14 33 0 c35 1 85 28 77 41 -3 5 8 11 25 15
16 4 30 13 30 21 0 8 6 14 14 14 8 0 21 3 30 6 10 4 16 1 16 -9 0 -48 46 -12
102 81 28 45 37 52 63 52 17 0 36 5 43 12 9 9 13 7 18 -5 8 -23 -3 -37 -31
-37 -14 0 -29 -9 -35 -20 -6 -11 -17 -20 -25 -20 -8 0 -15 -7 -15 -15 0 -9 -6
-18 -14 -21 -20 -8 -29 -36 -15 -45 7 -4 8 -12 3 -20 -5 -8 -9 -20 -11 -28 -1
-8 -6 -17 -11 -20 -12 -8 -26 -52 -23 -73 1 -9 -8 -23 -20 -31 -13 -10 -19
-22 -16 -31 4 -9 2 -16 -3 -16 -5 0 -11 -10 -15 -22 -3 -13 -10 -32 -14 -43
-15 -37 -31 -91 -31 -106 -1 -8 -14 -30 -30 -49 -23 -26 -30 -44 -30 -77 0
-24 4 -43 10 -43 9 0 17 12 70 115 11 22 38 72 60 110 22 39 48 89 59 111 11
23 23 43 29 45 5 2 26 29 47 59 21 30 67 88 102 127 35 40 63 77 63 81 0 5 9
17 19 29 11 11 32 41 48 65 31 50 242 275 511 545 95 96 163 169 151 162 -33
-17 -430 -304 -628 -453 -95 -72 -202 -151 -237 -176 -35 -25 -130 -93 -212
-151 -81 -58 -158 -112 -170 -118 -44 -23 -31 -6 27 39 187 143 320 247 346
271 31 28 76 59 300 211 72 48 153 104 181 125 29 21 119 86 200 146 183 132
184 133 184 141 0 8 -10 7 -40 -7z m-332 -202 c-3 -31 -27 -61 -55 -70 -29 -8
-30 8 -3 35 12 12 18 25 15 30 -9 15 4 30 25 30 15 0 19 -6 18 -25z m-98 -82
c0 -25 -49 -75 -95 -97 -16 -8 -40 -24 -52 -35 -12 -12 -30 -21 -40 -21 -10 0
-31 -12 -47 -26 -15 -15 -42 -29 -60 -31 -17 -2 -39 -6 -48 -9 -28 -9 -22 22
10 45 l27 20 -39 16 c-38 16 -73 14 -128 -6 -14 -6 -37 -9 -50 -7 -20 4 -19 6
17 22 40 18 92 27 275 46 70 8 109 17 147 38 54 28 72 57 31 47 -39 -8 -81
-15 -133 -22 -45 -5 -49 -4 -35 10 15 16 115 34 183 33 31 0 37 -4 37 -23z
m174 -28 c-4 -8 -14 -15 -25 -15 -33 0 -66 -21 -85 -55 -84 -145 -98 -164
-111 -151 -7 7 63 114 87 133 13 11 13 12 0 12 -24 0 -94 -69 -132 -129 -58
-91 -98 -161 -98 -168 0 -4 -18 -27 -40 -52 -44 -50 -56 -39 -12 12 38 46 52
74 52 103 0 28 -12 32 -30 10 -12 -14 -40 -21 -40 -10 0 11 53 85 61 85 4 0
28 17 53 38 95 80 126 102 168 125 23 12 55 35 70 50 30 30 92 39 82 12z
m-648 -149 c29 -9 45 -48 35 -83 -22 -72 -54 -110 -81 -93 -11 7 -11 12 2 32
36 57 24 109 -30 123 -25 6 -26 8 -9 20 18 13 45 14 83 1z m-46 -86 c0 -11 -4
-20 -10 -20 -5 0 -12 -16 -16 -35 -6 -36 -14 -39 -94 -49 -85 -10 -123 -33
-100 -61 7 -8 16 -13 20 -10 12 7 25 -16 14 -24 -5 -3 -15 -18 -23 -33 -8 -15
-18 -25 -22 -23 -11 8 -97 -53 -110 -77 -11 -20 -12 -20 -21 -4 -5 10 -7 28
-4 41 7 26 -9 44 -18 20 -3 -9 -18 -15 -36 -15 -17 0 -41 -5 -52 -11 -20 -11
-20 -10 -4 12 24 35 20 46 -23 53 -22 3 -41 9 -43 13 -7 18 -187 125 -213 128
-11 1 -23 3 -27 4 -5 0 -8 7 -8 15 0 23 56 31 185 26 39 -1 118 1 178 5 78 5
107 4 107 -4 0 -8 5 -9 19 -2 10 6 34 8 54 4 30 -4 35 -8 28 -22 -8 -13 -5
-16 12 -16 12 1 32 7 45 14 13 7 30 10 37 7 8 -3 17 3 20 14 3 10 16 20 28 22
14 2 23 11 25 26 5 30 52 32 52 2z m239 -154 c9 -11 10 -37 2 -63 -1 -2 -1 -6
0 -9 1 -8 -22 -24 -34 -24 -5 0 -7 10 -5 21 5 33 -23 45 -72 33 -44 -12 -59
-4 -33 17 43 37 121 50 142 25z m-409 -60 c0 -3 -4 -8 -10 -11 -5 -3 -10 -1
-10 4 0 6 5 11 10 11 6 0 10 -2 10 -4z m-2377 -148 c15 -25 15 -30 -2 -81 -11
-30 -27 -67 -37 -82 -16 -25 -22 -27 -65 -22 -29 4 -51 1 -59 -6 -6 -7 2 8 18
33 17 25 42 56 57 70 46 43 47 52 16 122 -49 109 -48 118 6 53 27 -33 56 -72
66 -87z m2157 10 c0 -18 -17 -7 -29 19 -13 28 -13 28 8 9 12 -11 21 -23 21
-28z m-104 16 c-3 -9 -6 -18 -6 -20 0 -2 -4 -4 -9 -4 -5 0 -7 9 -4 20 3 11 10
20 15 20 6 0 7 -7 4 -16z m208 -140 c4 -12 2 -12 -14 -4 -11 6 -20 15 -20 20
0 14 28 1 34 -16z m-84 -34 c0 -5 -2 -10 -4 -10 -3 0 -8 5 -11 10 -3 6 -1 10
4 10 6 0 11 -4 11 -10z m87 -16 c-3 -3 -12 -4 -19 -1 -8 3 -5 6 6 6 11 1 17
-2 13 -5z m-567 -144 c0 -5 22 -33 49 -62 31 -34 51 -65 53 -84 3 -26 0 -29
-30 -32 -49 -5 -110 34 -133 85 -21 47 -25 119 -7 125 15 5 68 -20 68 -32z
m-2223 -7 c32 -12 -54 -35 -139 -37 -72 -2 -89 1 -102 15 -14 17 -12 19 27 28
40 10 184 5 214 -6z m1940 -109 c12 -38 23 -70 23 -72 0 -2 5 0 10 3 6 3 10 1
10 -5 0 -6 20 -31 44 -57 24 -25 50 -57 57 -72 18 -34 26 -39 77 -52 43 -12
68 -39 58 -65 -3 -8 -13 -14 -22 -14 -10 0 -25 -7 -35 -16 -9 -8 -42 -18 -72
-21 -131 -13 -246 105 -273 282 -13 91 -6 120 30 129 20 5 26 13 26 32 0 25 1
26 22 12 13 -9 31 -42 45 -84z m-1762 36 l6 -35 -15 25 c-8 14 -15 34 -16 45
0 31 19 4 25 -35z m458 -17 c-7 -2 -19 -2 -25 0 -7 3 -2 5 12 5 14 0 19 -2 13
-5z m-73 -15 c0 -7 6 -25 14 -40 15 -29 12 -38 -14 -38 -13 0 -16 7 -12 30 2
18 0 30 -7 30 -6 0 -8 7 -5 15 7 18 24 20 24 3z m1590 -23 l23 -25 -24 -26
c-50 -54 -119 -51 -119 5 0 32 11 43 55 59 41 14 39 15 65 -13z m-813 -75 c2
-29 1 -31 -6 -14 -6 12 -14 25 -20 29 -17 10 -13 27 7 23 12 -2 18 -14 19 -38z
m-28 -9 c19 -12 7 -41 -33 -80 -31 -30 -34 -31 -50 -15 -19 19 -13 33 7 16 11
-9 17 -4 30 24 9 19 17 41 17 49 0 17 9 19 29 6z m407 -205 c-7 -29 30 -76 60
-77 19 0 -28 -20 -78 -33 -22 -5 -26 -3 -22 9 8 20 -24 31 -47 16 -32 -19 -20
2 26 49 25 25 45 48 45 52 0 5 5 8 11 8 7 0 9 -10 5 -24z m573 -96 l1 -25 -20
25 c-24 30 -35 65 -24 81 9 16 43 -47 43 -81z m-985 57 c6 -9 7 -19 4 -23 -9
-8 -38 20 -38 36 0 16 21 8 34 -13z m-396 -9 c20 -20 15 -40 -7 -28 -11 5 -29
10 -40 10 -12 0 -21 7 -21 15 0 18 50 21 68 3z m-9 -52 c9 -10 6 -23 -13 -57
-14 -23 -23 -46 -20 -51 3 -4 -4 -8 -15 -8 -24 0 -38 19 -21 30 8 5 11 24 9
54 -4 44 -3 46 22 46 15 0 32 -6 38 -14z m1364 -72 c4 -55 -1 -77 -14 -68 -5
3 -16 -2 -25 -10 -34 -34 -92 -8 -115 53 -8 19 -6 29 9 43 25 25 109 31 122 9
8 -13 9 -11 10 8 0 42 10 17 13 -35z m-1806 -36 c-3 -7 -5 -2 -5 12 0 14 2 19
5 13 2 -7 2 -19 0 -25z m1230 -215 c-4 -3 0 -14 9 -24 10 -11 14 -25 10 -36
-6 -15 -10 -13 -31 12 -29 36 -30 42 -7 48 9 3 19 5 21 6 2 0 1 -2 -2 -6z
m-294 -9 c10 -10 -51 -82 -76 -90 -35 -11 -73 -43 -107 -90 -19 -26 -39 -44
-51 -44 -27 0 -18 -44 16 -80 34 -36 32 -56 -16 -112 -22 -26 -37 -53 -34 -59
4 -5 4 -21 1 -35 l-7 -25 -24 30 c-14 16 -25 31 -25 34 0 3 14 19 30 35 45 46
40 53 -41 47 l-71 -4 26 20 c30 24 33 54 9 81 -16 18 -16 19 11 9 15 -6 46
-11 68 -11 l41 0 -23 25 c-13 14 -29 25 -35 25 -20 0 -107 41 -101 48 11 10
381 201 392 202 6 0 14 -3 17 -6z m608 -14 c10 -6 19 -21 18 -33 0 -12 -3 -17
-5 -10 -3 7 -21 17 -41 24 -26 8 -32 14 -22 20 18 11 26 11 50 -1z m-12 -48
c7 -14 2 -24 -29 -50 -21 -17 -43 -32 -48 -32 -5 0 -1 22 7 50 13 40 20 50 38
50 12 0 27 -8 32 -18z m-1956 -61 c8 -8 3 -11 -18 -11 -17 -1 -64 -3 -105 -7
-67 -5 -73 -4 -62 10 8 9 23 18 35 21 36 7 138 -1 150 -13z m74 -53 c-3 -7 -5
-2 -5 12 0 14 2 19 5 13 2 -7 2 -19 0 -25z m1602 -77 c14 -9 9 -41 -6 -41 -4
0 -13 11 -20 25 -12 27 -2 33 26 16z m-919 -5 c0 -11 -19 -15 -25 -6 -3 5 1
10 9 10 9 0 16 -2 16 -4z m879 -15 c24 -15 -2 -36 -64 -51 -57 -14 -85 -5 -85
26 0 12 4 12 24 -1 26 -17 50 -11 76 19 14 18 28 20 49 7z m-673 -24 c36 -31
28 -47 -36 -80 -46 -24 -55 -26 -69 -14 -9 8 -27 13 -41 11 -21 -3 -30 4 -53
41 -28 48 -36 73 -13 42 12 -15 20 -16 65 -6 28 6 53 15 57 20 10 17 63 9 90
-14z m-1383 -15 c6 -31 41 -52 87 -52 16 0 32 -5 35 -11 9 -13 225 -6 234 8 7
12 70 23 75 14 2 -3 0 -32 -5 -64 -7 -40 -17 -65 -33 -80 -31 -29 -68 -103
-65 -130 2 -24 -5 -48 -25 -86 -17 -31 -127 -141 -141 -141 -6 0 -22 -11 -35
-25 -13 -14 -31 -25 -40 -25 -29 0 -156 67 -172 91 -9 13 -26 35 -38 49 -33
37 -86 130 -100 175 -7 22 -22 54 -32 70 -32 52 -45 89 -52 140 -5 38 -4 46 4
32 6 -9 15 -15 21 -12 5 3 36 1 69 -6 52 -10 66 -9 105 6 39 14 45 20 45 46 0
25 4 29 29 29 23 0 30 -5 34 -28z m1742 -244 c3 -73 1 -127 -6 -147 l-12 -33
-71 7 c-39 4 -82 8 -96 10 -65 5 -163 29 -180 44 -11 9 -22 28 -25 42 -6 24
-2 27 53 47 32 12 62 22 65 22 3 0 11 -16 17 -35 8 -24 18 -35 31 -35 22 0 60
55 58 85 -3 42 0 47 25 41 14 -3 28 -1 32 5 3 6 14 9 23 6 11 -2 28 9 46 29
16 18 30 32 32 30 2 -1 5 -55 8 -118z m-2350 -154 c14 -6 14 -8 -1 -25 -9 -11
-23 -19 -30 -19 -8 0 -39 -11 -71 -25 l-58 -26 30 25 c17 14 26 26 20 26 -13
1 67 50 82 50 6 0 19 -3 28 -6z m15 -121 c0 -2 -20 -13 -45 -24 l-46 -20 2
-55 c2 -38 7 -58 18 -64 14 -8 13 -9 -4 -10 -11 0 -31 -3 -45 -6 -17 -4 -21
-3 -12 4 11 8 11 17 1 52 -15 50 -41 63 -94 49 l-38 -11 7 -61 c3 -33 8 -62
10 -64 2 -2 16 1 31 7 25 9 27 9 15 -5 -7 -8 -10 -18 -6 -22 8 -8 190 22 247
41 39 13 42 13 22 -1 -12 -8 -33 -25 -47 -38 -14 -13 -43 -26 -65 -30 -31 -5
-39 -10 -35 -23 5 -15 4 -15 -6 0 -10 17 -26 21 -120 33 -50 6 -65 25 -90 110
-7 22 -18 45 -26 51 -10 8 17 15 103 28 64 9 130 24 147 33 l31 17 -25 7 c-19
6 -13 7 23 6 26 0 47 -2 47 -4z m-147 -24 c-10 -10 -114 -31 -121 -25 -2 3 16
10 40 16 23 7 50 15 58 20 18 9 35 1 23 -11z m-459 -40 c-7 -12 -44 -12 -44 0
0 5 6 11 13 14 17 6 38 -3 31 -14z m59 7 c4 -10 0 -12 -14 -9 -27 7 -34 23
-11 23 11 0 22 -6 25 -14z m938 -23 c13 1 50 -9 82 -22 48 -21 57 -29 57 -50
0 -68 -21 -85 -41 -34 -7 18 -13 22 -22 15 -6 -6 -29 -13 -50 -17 -21 -4 -42
-16 -48 -26 -7 -14 -18 -18 -40 -15 -17 1 -34 7 -37 12 -4 5 -19 17 -34 27
-35 22 -36 51 -2 82 15 14 23 25 18 25 -5 1 2 7 16 14 21 12 29 12 51 0 15 -7
37 -12 50 -11z m-166 -23 c-13 -14 -16 -30 -12 -59 l5 -39 -39 17 c-22 10 -42
20 -44 23 -3 3 -43 4 -88 2 -84 -3 -91 0 -24 11 22 3 37 11 37 20 0 8 9 19 20
25 16 9 20 8 20 -5 0 -13 7 -15 38 -9 20 4 46 13 57 20 11 8 26 14 34 14 11 0
10 -4 -4 -20z m-785 -18 c0 -4 -13 -22 -29 -39 -16 -18 -31 -36 -33 -41 -6
-15 -271 -172 -291 -172 -6 0 45 32 114 71 151 86 150 86 143 113 -4 18 3 27
43 49 55 30 53 30 53 19z m1935 -53 c18 -22 23 -35 16 -42 -12 -12 -71 38 -71
60 0 23 27 14 55 -18z m-1392 -10 c-11 -11 -75 -28 -107 -29 -30 0 -11 12 41
26 62 16 80 17 66 3z m-961 -64 c0 -9 -384 -175 -404 -175 -4 0 -11 12 -14 28
-10 41 -11 42 -54 21 -21 -10 -45 -19 -52 -18 -7 0 7 8 32 19 l45 18 -40 4
-40 5 47 1 c26 1 50 -3 53 -8 4 -6 11 -8 16 -4 14 9 393 122 402 120 5 -1 9
-6 9 -11z m2416 -21 c-10 -10 -28 6 -28 24 0 15 1 15 17 -1 9 -9 14 -19 11
-23z m-1378 16 c11 -7 7 -10 -17 -10 -18 0 -33 5 -33 10 0 13 30 13 50 0z
m355 -5 c-37 -17 -121 -19 -131 -3 -5 7 -2 9 9 5 8 -3 28 -2 44 3 15 4 46 8
68 8 l40 0 -30 -13z m270 4 c-56 -11 -225 -23 -225 -16 0 14 71 25 165 25 79
0 91 -2 60 -9z m-455 -9 c-8 -5 -31 -10 -50 -10 -26 0 -31 3 -20 10 8 5 31 10
50 10 26 0 31 -3 20 -10z m-480 -25 c0 -8 -7 -15 -16 -15 -14 0 -14 3 -4 15 7
8 14 15 16 15 2 0 4 -7 4 -15z m1720 -5 c0 -5 8 -10 17 -10 27 0 53 -31 53
-63 0 -24 -3 -27 -14 -18 -8 6 -20 10 -27 9 -6 -2 -19 11 -28 27 -9 17 -19 32
-23 33 -14 6 -8 32 7 32 8 0 15 -4 15 -10z m-1543 -42 c-3 -8 -6 -5 -6 6 -1
11 2 17 5 13 3 -3 4 -12 1 -19z m1287 6 c20 -8 20 -46 1 -84 -12 -23 -22 -30
-45 -30 -19 0 -30 5 -30 14 0 8 -6 16 -12 18 -9 3 -4 17 15 46 27 41 40 48 71
36z m-2779 -60 c-22 -7 -51 -12 -65 -12 -22 0 -21 1 8 12 18 6 31 14 28 17 -3
3 11 3 32 0 l37 -5 -40 -12z m1109 10 c9 -3 16 -17 16 -30 0 -13 5 -24 10 -24
20 0 9 -19 -23 -37 l-33 -20 -54 26 c-69 32 -79 61 -23 61 21 0 47 7 57 15 22
17 27 18 50 9z m1744 -34 c22 -34 29 -70 13 -70 -11 0 -46 55 -56 89 -10 34
14 23 43 -19z m-2811 14 c-3 -3 -12 -4 -19 -1 -8 3 -5 6 6 6 11 1 17 -2 13 -5z
m1538 -8 c-16 -8 -50 -16 -74 -20 l-44 -7 24 20 c17 15 38 20 74 20 50 -1 50
-1 20 -13z m-1655 -7 c85 14 101 9 33 -9 -26 -7 -57 -21 -68 -30 -24 -22 -65
-10 -65 18 0 24 12 36 21 21 5 -8 26 -8 79 0z m2336 -27 c-8 -9 -19 -13 -22
-9 -10 9 16 38 28 31 6 -4 4 -13 -6 -22z m151 16 c6 -7 13 -23 16 -36 4 -17
-1 -26 -23 -37 -24 -12 -30 -12 -39 -1 -9 11 -8 23 6 50 18 39 25 43 40 24z
m197 -14 c9 -8 16 -20 16 -25 0 -5 7 -9 16 -9 9 0 14 -6 11 -12 -32 -87 -32
-88 -15 -134 8 -24 12 -44 8 -44 -5 0 -15 -3 -23 -6 -11 -4 -16 5 -21 32 -5
23 -23 53 -52 84 -48 51 -52 60 -29 60 12 0 14 7 9 26 -11 42 47 62 80 28z
m-296 -26 c-18 -26 -38 -35 -38 -16 0 18 20 38 38 38 12 0 12 -3 0 -22z m-78
-12 c0 -8 -7 -17 -16 -20 -8 -3 -13 -10 -10 -15 7 -10 -19 -33 -57 -49 -27
-11 -27 -11 -21 16 9 38 34 63 56 56 12 -3 18 0 18 10 0 9 7 16 15 16 8 0 15
-6 15 -14z m115 -93 c-9 -48 -31 -37 -26 13 3 40 23 66 29 38 2 -9 1 -32 -3
-51z m558 52 c9 -23 -11 -28 -23 -5 -8 16 -8 20 4 20 7 0 16 -7 19 -15z m-633
-15 c-6 -11 -15 -18 -21 -14 -6 4 -6 11 2 20 17 21 31 17 19 -6z m-2763 -6
c-3 -3 -12 -4 -19 -1 -8 3 -5 6 6 6 11 1 17 -2 13 -5z m-57 -14 c-34 -11 -60
-11 -35 0 11 5 29 8 40 8 16 0 15 -2 -5 -8z m2790 -35 c-7 -8 -10 -18 -7 -22
11 -10 -12 -41 -42 -56 -28 -14 -28 -14 -26 12 3 37 15 61 31 61 7 0 18 9 25
21 8 15 14 18 22 10 7 -7 6 -15 -3 -26z m690 20 c0 -8 6 -15 14 -15 19 0 30
-32 14 -42 -26 -16 -48 -9 -48 17 0 14 -4 25 -10 25 -5 0 -7 7 -4 15 4 8 12
15 20 15 8 0 14 -7 14 -15z m-3623 -11 c-10 -11 -127 -32 -127 -23 0 4 19 12
43 17 50 12 93 14 84 6z m-238 -49 c-9 -8 -149 -35 -177 -34 -15 1 9 9 53 19
80 18 133 24 124 15z m-212 -41 c-3 -3 -12 -4 -19 -1 -8 3 -5 6 6 6 11 1 17
-2 13 -5z m2278 -91 c3 -15 0 -34 -10 -49 -8 -13 -15 -30 -15 -38 0 -9 -7 -12
-20 -9 -12 3 -20 0 -20 -6 0 -7 -5 -9 -10 -6 -8 5 -7 11 0 20 7 8 14 33 17 57
2 23 9 48 14 55 15 17 36 6 44 -24z m-267 -34 c21 -7 32 -19 36 -37 5 -28 9
-78 7 -99 -1 -13 -46 -29 -111 -38 -25 -4 -69 -15 -99 -26 -29 -11 -55 -18
-56 -17 -7 8 -65 195 -65 208 1 22 59 -101 60 -125 1 -19 1 -19 11 -2 6 9 7
27 4 38 -5 14 -1 25 12 34 31 25 132 70 164 74 3 1 20 -4 37 -10z m788 -67
c-11 -18 -134 -101 -140 -94 -15 14 -2 34 42 63 26 18 53 41 61 52 12 17 15
17 28 4 9 -8 12 -20 9 -25z m-191 -121 c3 -6 -3 -15 -14 -21 -21 -11 -37 2
-26 20 8 13 32 13 40 1z m825 -89 c0 -18 -26 -62 -35 -59 -5 2 -11 18 -13 35
-3 28 0 32 22 32 14 0 26 -4 26 -8z m456 -69 c3 -21 13 -49 22 -63 9 -14 17
-50 18 -80 2 -30 5 -80 8 -110 l6 -55 -17 35 c-36 76 -44 95 -49 124 -3 17 -9
33 -13 36 -4 3 -7 23 -7 45 0 22 -3 55 -7 73 -8 28 -6 32 12 32 15 0 22 -9 27
-37z m-482 -60 c-6 -55 -23 -183 -31 -231 -3 -18 -10 -35 -16 -39 -13 -8 5
178 29 295 9 42 23 22 18 -25z m1101 -183 c19 -7 112 -190 97 -190 -4 1 -38
43 -76 95 -45 62 -75 95 -87 95 -10 0 -19 5 -19 11 0 11 42 5 85 -11z m-3335
-70 c18 -34 18 -41 6 -46 -22 -8 -34 2 -41 36 -6 26 -1 50 10 50 3 0 14 -18
25 -40z m2184 -55 c-4 -10 0 -15 14 -15 31 0 35 -16 7 -28 -18 -8 -25 -19 -25
-40 0 -16 -4 -42 -9 -58 -5 -16 -12 -46 -16 -66 -11 -70 -20 -39 -17 61 3 80
0 105 -13 125 l-17 26 31 -6 c20 -4 31 -3 31 5 0 6 4 11 10 11 5 0 7 -7 4 -15z
m284 -139 c13 -14 -24 -36 -57 -35 -20 1 -48 -2 -63 -6 -42 -11 -34 10 13 38
33 20 47 23 72 16 16 -4 32 -11 35 -13z m962 -146 c0 -16 -4 -30 -10 -30 -11
0 -14 43 -3 53 11 12 13 8 13 -23z m0 -102 c0 -7 -3 -24 -7 -36 -8 -31 -22 -9
-15 24 4 25 22 34 22 12z m359 -55 c-14 -16 -29 -8 -29 16 0 27 13 34 27 15 9
-13 10 -21 2 -31z m-106 -250 c-3 -18 -9 -33 -14 -33 -13 0 -11 44 3 58 15 15
17 13 11 -25z m-7 -115 c-3 -18 -11 -37 -18 -43 -8 -7 -9 -5 -4 8 3 10 6 30 6
43 0 13 5 24 11 24 8 0 9 -11 5 -32z m-2801 -276 c-3 -3 -11 0 -18 7 -9 10 -8
11 6 5 10 -3 15 -9 12 -12z m2648 -143 c-12 -78 -26 -146 -30 -150 -6 -6 -23
8 -43 32 -32 40 -33 46 -34 127 l-1 85 55 33 c35 22 58 30 64 24 6 -6 2 -60
-11 -151z m-2568 111 c8 -13 -5 -13 -25 0 -13 8 -13 10 2 10 9 0 20 -4 23 -10z
m-525 -150 c13 -8 13 -10 -2 -10 -9 0 -20 5 -23 10 -8 13 5 13 25 0z m90 -20
c13 -9 13 -10 0 -10 -8 0 -22 5 -30 10 -13 9 -13 10 0 10 8 0 22 -5 30 -10z
m4108 -91 c27 -11 22 -24 -13 -33 -27 -7 -89 29 -79 46 6 9 49 3 92 -13z
m-3931 -423 c6 -6 15 -24 19 -40 9 -37 -11 -32 -34 9 -9 16 -24 36 -32 43 -13
11 -11 12 10 6 14 -3 30 -11 37 -18z m-108 -42 c37 -47 20 -94 -21 -58 -32 29
-41 53 -27 70 16 20 25 18 48 -12z"/>
<path d="M5022 6310 c0 -14 2 -19 5 -12 2 6 2 18 0 25 -3 6 -5 1 -5 -13z"/>
<path d="M3725 6099 c-27 -11 -64 -18 -82 -16 -28 3 -30 1 -21 -16 5 -11 18
-22 28 -24 10 -3 18 -13 17 -23 -1 -14 -13 -19 -48 -24 -25 -4 -49 -9 -52 -12
-5 -5 31 -57 78 -116 20 -24 75 -32 140 -18 43 9 55 15 51 26 -3 9 -1 12 4 9
6 -3 10 1 10 10 0 9 12 27 27 41 16 15 23 28 17 34 -5 5 -51 12 -102 16 -75 6
-92 10 -88 21 4 8 6 19 6 24 0 5 8 9 19 9 18 0 40 26 54 63 7 20 7 20 -58 -4z"/>
<path d="M3432 5650 c0 -14 2 -19 5 -12 2 6 2 18 0 25 -3 6 -5 1 -5 -13z"/>
<path d="M6303 8060 c21 -12 44 -19 50 -17 12 5 -17 19 -63 31 -16 4 -12 -1
13 -14z"/>
<path d="M5384 7885 c-7 -19 -14 -41 -14 -50 0 -11 -11 -15 -39 -15 -53 0 -58
14 -19 50 l33 30 -28 -10 c-50 -18 -66 -30 -83 -61 -22 -43 -25 -68 -11 -90
15 -24 94 -26 157 -4 23 8 55 15 71 15 23 0 32 7 49 41 l21 41 -26 24 c-14 13
-22 24 -18 24 4 0 -9 9 -30 20 -20 11 -39 20 -42 20 -4 0 -13 -16 -21 -35z
m-49 -95 c18 -7 18 -9 -8 -19 -37 -14 -49 -14 -72 2 -27 21 -10 40 28 31 18
-3 41 -10 52 -14z"/>
<path d="M5661 7734 c0 -11 3 -14 6 -6 3 7 2 16 -1 19 -3 4 -6 -2 -5 -13z"/>
<path d="M5615 7567 c-4 -10 -5 -21 -1 -24 10 -10 18 4 13 24 -4 17 -4 17 -12
0z"/>
<path d="M6915 7318 c9 -57 25 -73 25 -26 0 43 -8 68 -22 68 -6 0 -7 -17 -3
-42z"/>
<path d="M6506 6803 c-4 -9 -4 -68 0 -131 7 -105 8 -112 21 -88 7 14 16 26 19
26 3 0 2 -4 -1 -10 -3 -5 -2 -10 4 -10 5 0 12 8 15 18 3 9 24 27 46 40 22 12
40 26 40 30 0 5 -27 34 -60 65 -33 31 -60 61 -60 66 0 17 -17 13 -24 -6z"/>
<path d="M3168 6303 c7 -3 16 -2 19 1 4 3 -2 6 -13 5 -11 0 -14 -3 -6 -6z"/>
<path d="M6065 6283 c-42 -29 -44 -35 -7 -28 15 4 37 8 50 11 25 5 31 41 7 41
-8 0 -31 -11 -50 -24z"/>
<path d="M1480 4710 c-9 -6 -10 -10 -3 -10 6 0 15 5 18 10 8 12 4 12 -15 0z"/>
<path d="M2090 4698 c0 -9 -17 -30 -37 -45 -21 -15 -50 -41 -65 -57 -18 -20
-33 -27 -47 -23 -35 9 -41 -13 -36 -137 5 -122 9 -141 27 -130 17 11 88 22 83
14 -3 -4 -17 -13 -32 -19 -26 -11 -28 -16 -30 -70 -2 -52 1 -61 25 -84 15 -15
42 -30 60 -33 31 -6 32 -5 65 67 19 41 41 80 50 88 10 7 17 16 17 20 0 4 22
31 49 60 27 29 52 63 55 75 4 16 -1 14 -22 -12 -15 -18 -58 -66 -95 -106 -38
-40 -73 -79 -78 -87 -6 -9 -9 -1 -9 27 0 49 36 169 61 206 11 14 19 31 19 37
0 5 6 14 14 18 17 10 36 47 36 70 0 24 -109 144 -110 121z"/>
<path d="M1373 4643 l-61 -46 5 -156 c3 -95 10 -174 19 -201 13 -40 13 -46 -2
-57 -9 -6 -23 -9 -32 -7 -15 5 -15 4 -1 -5 22 -14 112 -23 127 -13 11 8 12 20
2 66 -6 31 -16 56 -21 56 -5 0 -9 21 -9 48 -1 26 -9 81 -19 122 -22 93 -17
147 15 173 24 18 49 56 42 62 -2 2 -31 -17 -65 -42z"/>
<path d="M1718 4642 c-33 -20 -45 -81 -27 -144 6 -24 13 -59 15 -78 2 -19 9
-74 15 -121 15 -107 29 -120 84 -81 34 24 35 27 16 30 -28 4 -36 23 -50 112
-7 41 -17 91 -22 111 -14 55 -11 83 11 102 26 22 28 87 3 86 -10 0 -30 -8 -45
-17z"/>
<path d="M1240 4454 c-3 -33 3 -83 17 -140 15 -62 22 -79 22 -55 1 19 -3 48
-9 65 -5 17 -13 65 -18 106 l-8 75 -4 -51z"/>
</g>
</svg>
